<?xml version="1.0" standalone="no"?>
<!DOCTYPE svg PUBLIC "-//W3C//DTD SVG 20010904//EN"
 "http://www.w3.org/TR/2001/REC-SVG-20010904/DTD/svg10.dtd">
<svg version="1.0" xmlns="http://www.w3.org/2000/svg"
 width="512.000000pt" height="512.000000pt" viewBox="0 0 512.000000 512.000000"
 preserveAspectRatio="xMidYMid meet">

<g transform="translate(0.000000,512.000000) scale(0.100000,-0.100000)"
fill="#000000" stroke="none">
<path d="M2448 4900 c-171 -15 -383 -77 -545 -158 -175 -89 -397 -271 -534
-438 -266 -326 -417 -725 -454 -1204 l-6 -75 -44 -19 c-26 -10 -65 -40 -93
-71 -89 -97 -83 -1 -80 -1330 l3 -1170 23 -46 c32 -64 86 -117 152 -148 l55
-26 1635 0 1635 0 56 26 c66 31 119 83 151 147 l23 47 0 1190 c0 1118 -1 1192
-18 1228 -22 48 -81 113 -129 144 l-38 23 0 73 c0 39 -9 133 -20 208 -145 984
-908 1673 -1772 1599z m342 -564 c525 -113 915 -604 975 -1228 l7 -68 -1193 0
-1192 0 7 83 c51 621 480 1133 1024 1222 100 17 272 12 372 -9z m-7 -1783
c286 -135 351 -503 126 -718 -34 -32 -86 -69 -124 -86 -42 -20 -65 -37 -65
-47 1 -10 47 -241 104 -515 56 -273 100 -500 97 -502 -2 -3 -148 -5 -323 -5
-259 0 -318 2 -318 13 0 8 45 235 100 506 55 271 100 500 100 509 0 12 -16 23
-49 35 -58 20 -134 78 -179 135 -114 143 -123 362 -22 515 38 56 109 121 165
150 75 39 117 47 220 44 89 -2 108 -6 168 -34z"/>
</g>
</svg>
